#N canvas 2281 71 1198 791 10;
#X obj 248 106 buttercoef3;
#X obj 7 178 inlet~;
#X obj 248 29 inlet;
#X obj 248 70 / 22050;
#X obj 392 506 outlet~;
#X obj 170 221 *~;
#X floatatom 111 150 10 0 0 0 - - -, f 10;
#X obj 124 299 rpole~;
#X floatatom 208 168 10 0 0 0 - - -, f 10;
#X floatatom 286 159 10 0 0 0 - - -, f 10;
#X floatatom 372 160 10 0 0 0 - - -, f 10;
#X floatatom 542 164 10 0 0 0 - - -, f 10;
#X floatatom 465 177 10 0 0 0 - - -, f 10;
#X msg 228 227 set \$1;
#X obj 379 277 pack f f;
#X msg 379 299 set \$1 \$2;
#X obj 490 269 pack f f;
#X msg 490 291 set \$1 \$2;
#X obj 182 333 *~;
#X obj 316 364 cpole~;
#X obj 397 410 cpole~;
#X obj 397 432 rzero~ -1;
#X obj 397 454 rzero~ -1;
#X obj 397 476 rzero~ -1;
#X text 380 37 this abstraction is lifted from the pd help patch J07
;
#X connect 0 0 6 0;
#X connect 0 1 8 0;
#X connect 0 2 9 0;
#X connect 0 3 10 0;
#X connect 0 4 12 0;
#X connect 0 5 11 0;
#X connect 1 0 5 0;
#X connect 2 0 3 0;
#X connect 3 0 0 0;
#X connect 5 0 7 0;
#X connect 6 0 5 1;
#X connect 7 0 18 0;
#X connect 8 0 18 1;
#X connect 9 0 13 0;
#X connect 10 0 14 0;
#X connect 10 0 16 0;
#X connect 11 0 16 1;
#X connect 12 0 14 1;
#X connect 13 0 7 0;
#X connect 14 0 15 0;
#X connect 15 0 19 0;
#X connect 16 0 17 0;
#X connect 17 0 20 0;
#X connect 18 0 19 0;
#X connect 19 0 20 0;
#X connect 20 0 21 0;
#X connect 21 0 22 0;
#X connect 22 0 23 0;
#X connect 23 0 4 0;
